<!-- icon666.com - MILLIONS vector ICONS FREE --><svg fill="none" viewBox="0 0 512 512" xmlns="http://www.w3.org/2000/svg"><g clip-rule="evenodd" fill-rule="evenodd"><path d="m256 480c123.712 0 224-100.288 224-224s-100.288-224-224-224-224 100.288-224 224 100.288 224 224 224z" fill="#e92b2b"></path><path d="m32 256h448c0-123.681-100.238-223.9495-223.907-224h-.186c-123.669.0505-223.907 100.319-223.907 224z" fill="#fbfbfb"></path><path d="m240 32.5625v223.4375h-208c0-118.332 91.756-215.2336 208-223.4375z" fill="#2a2faf"></path></g><path d="m152 104 13.22 39.724h42.78l-34.61 24.552 13.22 39.724-34.61-24.551-34.61 24.551 13.22-39.724-34.61-24.552h42.78z" fill="#fbfbfb"></path></svg>