<!-- icon666.com - MILLIONS vector ICONS FREE --><svg fill="none" viewBox="0 0 512 512" xmlns="http://www.w3.org/2000/svg"><g clip-rule="evenodd" fill-rule="evenodd"><path d="m256 32c123.712 0 224 100.288 224 224s-100.288 224-224 224-224-100.288-224-224 100.288-224 224-224z" fill="#ffe70e"></path><path d="m454.452 360c-37.465 71.341-112.272 120-198.445 120-86.172 0-160.9796-48.659-198.4445-120z" fill="#e92b2b"></path><path d="m57.5551 360c-16.3209-31.078-25.5551-66.461-25.5551-104 0-8.108.4308-16.115 1.2706-24h445.4584c.84 7.885 1.271 15.892 1.271 24 0 37.539-9.234 72.922-25.555 104z" fill="#2a2faf"></path></g></svg>