<!-- icon666.com - MILLIONS vector ICONS FREE --><svg fill="none" viewBox="0 0 512 512" xmlns="http://www.w3.org/2000/svg"><g clip-rule="evenodd" fill-rule="evenodd"><path d="m256 32c123.712 0 224 100.288 224 224s-100.288 224-224 224-224-100.288-224-224 100.288-224 224-224z" fill="#ffe70e"></path><path d="m254.807 479.997c-86.951-.454-162.1806-50.449-198.9008-123.2h400.1888c-36.72 72.751-111.95 122.746-198.901 123.2z" fill="#e92b2b"></path><path d="m55.9081 356.802c-15.2937-30.299-23.9081-64.544-23.9081-100.802 0-7.559.3745-15.031 1.1059-22.398h445.7881c.732 7.367 1.106 14.839 1.106 22.398 0 36.258-8.614 70.503-23.908 100.802z" fill="#2a2faf"></path></g><path d="m200 278.398v-56h112v56c0 30.928-25.072 56-56 56s-56-25.072-56-56z" fill="#ffe70e"></path><path d="m222.406 278.403v-67.2h67.2v67.2c0 18.557-15.043 33.6-33.6 33.6s-33.6-15.043-33.6-33.6z" fill="#38a9fb"></path><path d="m170.557 168.901 51.291 30.775c.349.209.747.32 1.153.32h65.959c.406 0 .804-.111 1.152-.32l51.292-30.775c1.641-.984 1.372-3.44-.444-4.045l-44.972-14.991c-.52-.174-1.086-.15-1.59.066l-37.535 16.086c-.564.242-1.201.242-1.765 0l-37.535-16.086c-.504-.216-1.07-.24-1.59-.066l-44.972 14.991c-1.816.605-2.085 3.061-.444 4.045z" fill="#1d1d1d"></path></svg>